#!OML:ASF H:\Terrain\Patient Classification 1\Walking\steve\steve.ASF
:FULLY-SPECIFIED
:DEGREES
31
root 8.5105 15.4212 -30.7038 6.18406 -8.51781 1.03435
lowerback 0.300916 3.89525 -3.66455
upperback -3.27872 5.06823 -1.64489
thorax -3.71762 2.60817 0.160163
lowerneck -11.8706 -0.746945 -4.28672
upperneck 8.94885 -0.851028 4.9138
head 4.66041 -0.255014 2.15822
rclavicle -8.70087e-014 -9.54166e-015
rhumerus -25.6717 1.83519 -87.8937
rradius 56.2809
rwrist -19.8343
rhand -26.4962 -46.4932
rfingers 7.12502
rthumb 0.0665274 -76.4729
lclavicle -8.70087e-014 -9.54166e-015
lhumerus -62.5549 28.3293 48.5362
lradius 7.35132
lwrist -23.5262
lhand -19.0191 -5.86594
lfingers 7.12502
lthumb 7.28675 23.9886
rfemur -3.29042 6.42042 17.1088
rtibia 59.0007
rfoot 18.5986 -10.328
rtoes 8.92953
lfemur -34.2089 5.11073 -22.4259
ltibia 35.5799
lfoot -7.28617 -0.439755
ltoes -6.90694
32
root 8.53748 15.4649 -30.4774 6.09139 -8.57707 1.49996
lowerback 0.33878 3.79265 -4.06169
upperback -3.23644 4.91826 -1.73039
thorax -3.71797 2.54296 0.296013
lowerneck -10.6844 -0.56932 -3.54641
upperneck 7.53876 -0.640264 4.09112
head 4.01732 -0.19285 1.78894
rclavicle 9.37705e-015 -2.38542e-015
rhumerus -26.6476 1.37254 -88.2911
rradius 55.4834
rwrist -20.0056
rhand -27.849 -50.3425
rfingers 7.12502
rthumb -1.24012 -80.3186
lclavicle 9.37705e-015 -2.38542e-015
lhumerus -61.3943 29.2137 49.0091
lradius 7.38084
lwrist -24.1204
lhand -19 -6.39099
lfingers 7.12502
lthumb 7.30519 23.4629
rfemur -5.09884 6.06586 16.5684
rtibia 61.4546
rfoot 15.7487 -10.2173
rtoes 10.2159
lfemur -33.0634 5.00705 -23.1616
ltibia 35.3011
lfoot -8.06085 -0.320491
ltoes -8.4367
33
root 8.5629 15.5004 -30.2557 6.04291 -8.75237 1.63441
lowerback 0.497369 3.70894 -4.24046
upperback -3.34199 4.79272 -1.62928
thorax -3.93708 2.49108 0.486239
lowerneck -9.9747 -0.214273 -5.11581
upperneck 7.02872 -0.103678 5.72108
head 3.72573 0.105174 2.57602
rclavicle 2.8024e-014 -3.97569e-016
rhumerus -27.7678 0.990475 -88.5167
rradius 54.4433
rwrist -19.9233
rhand -26.0121 -47.5206
rfingers 7.12502
rthumb 0.534077 -77.4997
lclavicle 2.8024e-014 -3.97569e-016
lhumerus -60.5025 30.0744 49.4166
lradius 7.44342
lwrist -24.7069
lhand -19.4547 -6.38545
lfingers 7.12502
lthumb 6.86625 23.4832
rfemur -7.05434 5.93262 16.4525
rtibia 63.7613
rfoot 13.6064 -9.0494
rtoes 8.54523
lfemur -31.8395 4.87092 -23.4279
ltibia 34.813
lfoot -8.79535 -0.395512
ltoes -6.37481
34
root 8.59256 15.5326 -30.038 5.93544 -8.81188 1.76781
lowerback 0.718591 3.56694 -4.26133
upperback -3.3897 4.58955 -1.59247
thorax -4.10791 2.39361 0.527563
lowerneck -10.8264 -0.290353 -4.94683
upperneck 8.16952 -0.182605 5.22806
head 4.21718 0.0566306 2.40281
rclavicle -2.32935e-014 2.0276e-014
rhumerus -28.7766 0.603791 -88.7531
rradius 53.166
rwrist -19.6855
rhand -20.046 -37.5133
rfingers 7.12502
rthumb 6.2954 -67.3997
lclavicle -2.32935e-014 2.0276e-014
lhumerus -59.4204 31.1162 49.8287
lradius 7.50699
lwrist -25.4101
lhand -19.0347 -6.61253
lfingers 7.12502
lthumb 7.27166 23.2425
rfemur -8.96152 5.68152 16.3169
rtibia 65.8585
rfoot 11.8019 -7.68383
rtoes 8.13617
lfemur -30.5627 4.40162 -23.6393
ltibia 34.2842
lfoot -9.49292 -0.399991
ltoes -3.64601
35
root 8.62142 15.5654 -29.8219 5.69364 -8.6946 1.96843
lowerback 0.994535 3.45751 -4.31623
upperback -3.29349 4.43009 -1.56784
thorax -4.16317 2.31557 0.577051
lowerneck -10.7574 -0.221415 -5.33944
upperneck 8.13492 -0.0642769 5.53682
head 4.18896 0.119378 2.57006
rclavicle -1.55533e-014 -1.98785e-015
rhumerus -29.8714 0.116098 -88.8191
rradius 52.1018
rwrist -19.6078
rhand -20.117 -37.139
rfingers 7.12502
rthumb 6.22688 -67.0275
lclavicle -1.55533e-014 -1.98785e-015
lhumerus -58.1159 32.0208 50.5292
lradius 7.94593
lwrist -25.903
lhand -18.1044 -6.97308
lfingers 7.12502
lthumb 8.16955 22.849
rfemur -10.6289 5.23678 16.1403
rtibia 67.6528
rfoot 9.85315 -6.04583
rtoes 9.43629
lfemur -29.165 3.68673 -23.9101
ltibia 33.8492
lfoot -10.2284 -0.237565
ltoes -2.0137
36
root 8.64172 15.5972 -29.6075 5.56424 -8.82367 1.86595
lowerback 1.26786 3.4028 -4.34221
upperback -3.33745 4.34768 -1.33646
thorax -4.38059 2.28281 0.813278
lowerneck -10.8439 -0.122568 -5.46196
upperneck 8.5174 0.10816 5.27045
head 4.31057 0.185545 2.52234
rclavicle -5.8445e-014 -1.98785e-015
rhumerus -31.1866 -0.062537 -88.8028
rradius 51.1444
rwrist -19.7845
rhand -19.9193 -38.0313
rfingers 7.12502
rthumb 6.4177 -67.914
lclavicle -5.8445e-014 -1.98785e-015
lhumerus -57.1251 32.8862 51.1424
lradius 8.52404
lwrist -26.3834
lhand -18.2523 -6.65447
lfingers 7.12502
lthumb 8.02679 23.1731
rfemur -12.3646 5.2042 16.4182
rtibia 69.0967
rfoot 7.49992 -4.94287
rtoes 10.3702
lfemur -27.8713 3.26476 -23.8791
ltibia 33.5228
lfoot -11.0418 0.100757
ltoes -2.60871
37
root 8.66141 15.6294 -29.3862 5.68395 -9.07742 1.65689
lowerback 1.03399 3.29688 -4.24696
upperback -3.39438 4.22864 -1.11677
thorax -4.31071 2.2249 1.0064
lowerneck -11.4362 -0.0350064 -5.32276
upperneck 9.53668 0.256325 4.81942
head 4.71469 0.239936 2.38165
rclavicle 7.09382e-014 -1.39149e-015
rhumerus -32.295 -0.222726 -88.918
rradius 49.8732
rwrist -19.9746
rhand -19.3891 -39.0469
rfingers 7.12502
rthumb 6.92956 -68.9135
lclavicle 7.09382e-014 -1.39149e-015
lhumerus -56.2519 33.8343 51.5038
lradius 9.12698
lwrist -27.015
lhand -18.2644 -7.18843
lfingers 7.12502
lthumb 8.01516 22.6396
rfemur -14.3114 5.43448 16.8302
rtibia 70.2389
rfoot 5.19526 -4.28032
rtoes 9.68766
lfemur -26.9061 3.20009 -23.8437
ltibia 33.2681
lfoot -11.8411 0.602861
ltoes -6.42673
38
root 8.68139 15.6603 -29.1648 5.75111 -9.12785 1.75711
lowerback 0.679664 3.18241 -4.25536
upperback -3.34042 4.09565 -1.12775
thorax -4.04629 2.15486 1.03171
lowerneck -11.6063 0.0410985 -5.37887
upperneck 9.92933 0.350667 4.95279
head 4.85867 0.293469 2.44428
rclavicle -4.74925e-014 1.64991e-014
rhumerus -33.2589 -1.14295 -88.9268
rradius 48.4916
rwrist -19.2036
rhand -17.7462 -39.7519
rfingers 7.12502
rthumb 8.51526 -69.5602
lclavicle -4.74925e-014 1.64991e-014
lhumerus -54.6875 34.8035 52.1483
lradius 9.40177
lwrist -27.4435
lhand -18.0614 -8.21422
lfingers 7.12502
lthumb 8.21106 21.6062
rfemur -16.1846 5.36922 16.9048
rtibia 71.1312
rfoot 3.33188 -3.72441
rtoes 6.3379
lfemur -25.9802 3.01206 -24.1305
ltibia 33.0106
lfoot -12.6276 0.92607
ltoes -8.1272
39
root 8.69642 15.6884 -28.9607 5.70944 -9.05429 1.95597
lowerback 0.782317 3.08838 -4.48009
upperback -3.36412 3.95745 -1.11764
thorax -4.13931 2.09493 1.16602
lowerneck -11.2088 0.102453 -5.1034
upperneck 9.65505 0.407293 4.69074
head 4.70625 0.311083 2.31612
rclavicle -2.36212e-014 3.37934e-014
rhumerus -34.2152 -2.62306 -88.507
rradius 47.2551
rwrist -16.6703
rhand -14.4949 -43.5704
rfingers 7.12502
rthumb 11.6519 -73.2265
lclavicle -2.36212e-014 3.37934e-014
lhumerus -52.6541 35.9699 53.2241
lradius 9.29032
lwrist -27.7451
lhand -18.7665 -8.76491
lfingers 7.12502
lthumb 7.5305 21.081
rfemur -18.0179 5.14778 16.9266
rtibia 71.8221
rfoot 1.51284 -3.29487
rtoes 0.328434
lfemur -24.9398 2.59424 -24.4442
ltibia 32.6607
lfoot -13.4728 1.12531
ltoes -7.56145
40
root 8.7125 15.7195 -28.7571 5.68517 -8.86974 1.95279
lowerback 0.823544 2.96808 -4.51157
upperback -3.33239 3.79835 -1.00927
thorax -4.13022 2.01824 1.30222
lowerneck -10.9557 0.12352 -4.60594
upperneck 9.42593 0.421561 4.07761
head 4.59598 0.295732 2.04127
rclavicle 1.5676e-014 2.40529e-014
rhumerus -35.2355 -3.32451 -88.454
rradius 44.9429
rwrist -18.0755
rhand -18.0136 -39.4313
rfingers 7.12502
rthumb 8.25721 -69.2499
lclavicle 1.5676e-014 2.40529e-014
lhumerus -50.8169 36.9942 54.2985
lradius 9.67861
lwrist -28.0569
lhand -19.0704 -9.09938
lfingers 7.12502
lthumb 7.23719 20.7569
rfemur -19.8008 4.95104 17.1891
rtibia 72.3118
rfoot -0.223217 -2.61931
rtoes 2.10839
lfemur -23.8221 2.26831 -24.565
ltibia 32.2038
lfoot -14.2097 1.24359
ltoes -8.06741
41
root 8.73141 15.7441 -28.5429 5.57241 -8.54053 1.82377
lowerback 0.799883 2.82528 -4.24552
upperback -3.19329 3.62434 -0.910702
thorax -3.94956 1.9205 1.27225
lowerneck -10.996 0.189469 -4.71403
upperneck 9.5075 0.516863 4.16985
head 4.62282 0.344504 2.09517
rclavicle -4.99419e-014 -2.20651e-014
rhumerus -36.1957 -4.29023 -88.1366
rradius 42.8327
rwrist -17.9505
rhand -18.7921 -37.125
rfingers 7.12502
rthumb 7.50579 -66.9719
lclavicle -4.99419e-014 -2.20651e-014
lhumerus -49.0734 37.7153 55.2741
lradius 10.4286
lwrist -28.2815
lhand -19.0633 -11.3829
lfingers 7.12502
lthumb 7.24409 18.4731
rfemur -21.3209 4.64531 17.6112
rtibia 72.5676
rfoot -1.53374 -1.83384
rtoes 2.00536
lfemur -22.5575 2.10117 -24.5744
ltibia 31.6993
lfoot -14.7151 0.973182
ltoes -8.77295
42
root 8.74857 15.7559 -28.3276 5.5206 -8.3775 1.8235
lowerback 0.779714 2.6852 -4.25666
upperback -3.17376 3.44351 -0.764197
thorax -3.91745 1.83275 1.44003
lowerneck -10.3653 0.462957 -5.36274
upperneck 9.1529 0.887661 4.84522
head 4.38514 0.539969 2.4281
rclavicle 1.43614e-014 1.49089e-014
rhumerus -37.2508 -5.07886 -87.6041
rradius 40.8075
rwrist -17.2313
rhand -19.5507 -41.679
rfingers 7.12502
rthumb 6.77355 -71.5507
lclavicle 1.43614e-014 1.49089e-014
lhumerus -44.7541 35.061 60.6943
lradius 11.0674
lwrist -23.4763
lhand -20.9153 -18.0426
lfingers 7.12502
lthumb 5.45615 11.8671
rfemur -22.9383 4.34156 17.8681
rtibia 72.63
rfoot -2.86125 -1.19125
rtoes -0.902108
lfemur -21.3509 2.00631 -24.7339
ltibia 31.109
lfoot -15.1651 0.670408
ltoes -9.03924
43
root 8.76343 15.7687 -28.1132 5.39533 -8.24965 2.02502
lowerback 0.763965 2.50152 -4.5585
upperback -3.15354 3.1947 -0.655724
thorax -3.89749 1.71936 1.73301
lowerneck -10.7972 0.363127 -4.82367
upperneck 9.995 0.774495 3.96387
head 4.72871 0.450016 2.06994
rclavicle -1.62328e-014 1.30204e-014
rhumerus -38.3103 -5.9058 -87.058
rradius 38.679
rwrist -15.9339
rhand -20.4192 -39.909
rfingers 7.12502
rthumb 5.93508 -69.8059
lclavicle -1.62328e-014 1.30204e-014
lhumerus -40.9848 31.8481 65.6156
lradius 12.0075
lwrist -18.1895
lhand -18.4131 -9.11831
lfingers 7.12502
lthumb 7.87168 20.7151
rfemur -24.4296 4.0409 17.9031
rtibia 72.4761
rfoot -4.41411 -0.493654
rtoes -3.47073
lfemur -20.0717 1.78446 -25.0881
ltibia 30.475
lfoot -15.6795 0.641885
ltoes -9.33333
